# xmcd
#
# Track frame offsets:
#	150
#	20912
#	40270
#	59586
#	80342
#	103012
#	124224
#	141420
#	163626
#	185248
#	199849
#	218928
#	236590
#	258030
#	279312
#
# Disc length: 3996 seconds
#
# Revision: 1
# Processed by: cddbd v1.5.1PL2 Copyright (c) Steve Scherf et al.
# Submitted via: audiograbber 1.82.02
#
DISCID=e40f9a0f
DTITLE=Ruby Turner - Call Me By My Name
DYEAR=1998
DGENRE=Soul
TTITLE0=Call Me By My Name
TTITLE1=Reassure Me
TTITLE2=Suspicious Again
TTITLE3=Just Say The Word
TTITLE4=Brand New World
TTITLE5=Breath I Need
TTITLE6=You Were Never Mine
TTITLE7=My Intuition Tells Me
TTITLE8=Let Me Show You (My Mistakes)
TTITLE9=Alone Here Tonight
TTITLE10=Last On My List (No More)
TTITLE11=Could You Need Me Too
TTITLE12=There For You
TTITLE13=All Shall Be Well
TTITLE14=Chain Of Life
EXTD=
EXTT0=
EXTT1=
EXTT2=
EXTT3=
EXTT4=
EXTT5=
EXTT6=
EXTT7=
EXTT8=
EXTT9=
EXTT10=
EXTT11=
EXTT12=
EXTT13=
EXTT14=
PLAYORDER=
